<svg xmlns="http://www.w3.org/2000/svg" viewBox="0 0 368.24 518"><defs><style>.cls-1{fill:#fff;}</style></defs><title>Ativo 1</title><g id="Camada_2" data-name="Camada 2"><g id="Camada_1-2" data-name="Camada 1"><path class="cls-1" d="M3,370.44c4.44,26.38,13.88,50.49,28.37,71.19,4.08-10.95,11.49-18.18,19.4-17.66,11.08.74,18.95,16.38,17.58,34.95a51.66,51.66,0,0,1-4.14,17.16,187.6,187.6,0,0,0,16.27,11.38,185.16,185.16,0,0,0,28.76,15.4c1.22-18.5,10.59-32.9,22-32.9,12.19,0,22.08,16.57,22.08,37a60.37,60.37,0,0,1-.59,8.51A193.52,193.52,0,0,0,183.82,518c1.61,0,3.23,0,4.84-.06L165.87,281.78Zm149.15-1.64c-1.43,19.44-12,34.57-23.58,33.8s-19.83-17.16-18.4-36.6,12-34.57,23.57-33.79S153.57,349.37,152.14,368.8Z"/><path class="cls-1" d="M196.34,517.59A187.79,187.79,0,0,0,280,491.93,54.32,54.32,0,0,1,277.7,480c-1.48-18.56,6.28-34.26,17.35-35.06,8.44-.61,16.35,7.6,20.3,19.75a174.13,174.13,0,0,0,35-49.13c.53-1.07,1.06-2.16,1.57-3.25q1.25-2.66,2.38-5.33L193.83,288.17Zm42.31-168.3c11.07-.81,21.24,13.58,22.73,32.14S255.1,415.68,244,416.48s-21.24-13.58-22.73-32.14S227.59,350.09,238.65,349.29Z"/><path class="cls-1" d="M343.57,243.14c-31.31-54.39-88.33-82.59-119.9-134.78-12.74-21-20.47-40.32-25-58A235.44,235.44,0,0,1,191.79,0s-65.93,86.92-68.13,179.48A177.21,177.21,0,0,0,128,224l-17.69-39.51Q96,152.36,81.6,120.25C26,193-1.53,271.54.07,339.31l179.47-97.69L363.68,378C374.59,330.43,365.13,280.63,343.57,243.14Z"/></g></g></svg>